<svg width="44" height="44" viewBox="0 0 44 44" fill="none" xmlns="http://www.w3.org/2000/svg">
<path d="M12.418 17.5283L13.3418 16.8516L14.2334 17.5283C14.5557 17.7646 14.8994 17.5176 14.7812 17.1631L14.4268 16.0674L15.3291 15.3906C15.6084 15.1758 15.501 14.7783 15.1465 14.7783H14.0186L13.6426 13.6074C13.5459 13.2959 13.127 13.2959 13.0303 13.6074L12.6543 14.7783H11.5156C11.1611 14.7783 11.043 15.1758 11.333 15.3906L12.2461 16.0674L11.8916 17.1631C11.7627 17.5176 12.1064 17.7539 12.418 17.5283ZM18.4336 16.626H31.958C32.4414 16.626 32.8174 16.25 32.8174 15.7666C32.8174 15.2725 32.4414 14.8965 31.958 14.8965H18.4336C17.9502 14.8965 17.5635 15.2725 17.5635 15.7666C17.5635 16.25 17.9502 16.626 18.4336 16.626ZM12.418 24.0059L13.3418 23.3291L14.2334 24.0059C14.5557 24.2529 14.8994 23.9951 14.7812 23.6406L14.4268 22.5449L15.3291 21.8682C15.6084 21.6533 15.501 21.2666 15.1465 21.2666H14.0186L13.6426 20.085C13.5459 19.7842 13.127 19.7842 13.0303 20.085L12.6543 21.2666H11.5156C11.1611 21.2666 11.043 21.6533 11.333 21.8682L12.2461 22.5449L11.8916 23.6406C11.7734 23.9951 12.1064 24.2314 12.418 24.0059ZM18.4336 23.125H31.958C32.4414 23.125 32.8174 22.7383 32.8174 22.2549C32.8174 21.7715 32.4414 21.3955 31.958 21.3955H18.4336C17.9502 21.3955 17.5635 21.7715 17.5635 22.2549C17.5635 22.7383 17.9502 23.125 18.4336 23.125ZM12.418 30.5156L13.3418 29.8389L14.2334 30.5156C14.5557 30.7627 14.8994 30.5049 14.7812 30.1504L14.4268 29.0547L15.3291 28.3779C15.6084 28.1631 15.501 27.7764 15.1465 27.7764H14.0186L13.6426 26.5947C13.5459 26.2939 13.127 26.2832 13.0303 26.5947L12.6543 27.7764H11.5156C11.1611 27.7764 11.043 28.1631 11.333 28.3779L12.2461 29.0547L11.8916 30.1504C11.7734 30.5049 12.1064 30.7412 12.418 30.5156ZM18.4336 29.6133H31.958C32.4414 29.6133 32.8174 29.2373 32.8174 28.7539C32.8174 28.2598 32.4414 27.8838 31.958 27.8838H18.4336C17.9502 27.8838 17.5635 28.2598 17.5635 28.7539C17.5635 29.2373 17.9502 29.6133 18.4336 29.6133Z" fill="white"/>
</svg>
